<?xml version="1.0" encoding="UTF-8" standalone="no"?>
<svg
   xmlns:dc="http://purl.org/dc/elements/1.1/"
   xmlns:cc="http://creativecommons.org/ns#"
   xmlns:rdf="http://www.w3.org/1999/02/22-rdf-syntax-ns#"
   xmlns:svg="http://www.w3.org/2000/svg"
   xmlns="http://www.w3.org/2000/svg"
   viewBox="0 0 45.625198 51.027866"
   height="51.027866"
   width="45.625198"
   xml:space="preserve"
   id="svg2"
   version="1.1"><metadata
     id="metadata8"><rdf:RDF><cc:Work
         rdf:about=""><dc:format>image/svg+xml</dc:format><dc:type
           rdf:resource="http://purl.org/dc/dcmitype/StillImage" /></cc:Work></rdf:RDF></metadata><defs
     id="defs6"><clipPath
       id="clipPath14"
       clipPathUnits="userSpaceOnUse"><path
         id="path12"
         d="M 0,0 H 493.2 V 150.24 H 0 Z" /></clipPath></defs><g
     clip-path="url(#clipPath14)"
     transform="matrix(1.3333333,0,0,-1.3333333,-93.1708,75.211867)"
     id="g10"><g
       transform="translate(0.48,132)"
       id="g16"><path
         id="path18"
         style="fill:none;stroke:#000000;stroke-width:0.95999998;stroke-linecap:butt;stroke-linejoin:miter;stroke-miterlimit:10;stroke-dasharray:none;stroke-opacity:1"
         d="M 0,0 C 0,2.72 2.204,4.92 4.923,4.92 H 293.76 c 2.72,0 4.92,-2.2 4.92,-4.92 v -124.437 c 0,-2.719 -2.2,-4.923 -4.92,-4.923 H 4.923 c -2.719,0 -4.923,2.204 -4.923,4.923 z" /></g><g
       transform="translate(83.76,51.06)"
       id="g20"><path
         id="path22"
         style="fill:#d9d9d9;fill-opacity:1;fill-rule:evenodd;stroke:none"
         d="M 0,0 C 0,2.021 1.612,3.66 3.6,3.66 5.588,3.66 7.2,2.021 7.2,0 7.2,-2.021 5.588,-3.66 3.6,-3.66 1.612,-3.66 0,-2.021 0,0 Z" /></g><g
       transform="translate(83.76,51.06)"
       id="g24"><path
         id="path26"
         style="fill:none;stroke:#000000;stroke-width:0.95999998;stroke-linecap:butt;stroke-linejoin:miter;stroke-miterlimit:10;stroke-dasharray:none;stroke-opacity:1"
         d="M 0,0 C 0,2.021 1.612,3.66 3.6,3.66 5.588,3.66 7.2,2.021 7.2,0 7.2,-2.021 5.588,-3.66 3.6,-3.66 1.612,-3.66 0,-2.021 0,0 Z" /></g><g
       transform="translate(83.76,36.9)"
       id="g28"><path
         id="path30"
         style="fill:#f2f2f2;fill-opacity:1;fill-rule:evenodd;stroke:none"
         d="M 0,0 C 0,2.021 1.612,3.66 3.6,3.66 5.588,3.66 7.2,2.021 7.2,0 7.2,-2.021 5.588,-3.66 3.6,-3.66 1.612,-3.66 0,-2.021 0,0 Z" /></g><g
       transform="translate(83.76,36.9)"
       id="g32"><path
         id="path34"
         style="fill:none;stroke:#000000;stroke-width:0.95999998;stroke-linecap:butt;stroke-linejoin:miter;stroke-miterlimit:10;stroke-dasharray:none;stroke-opacity:1"
         d="M 0,0 C 0,2.021 1.612,3.66 3.6,3.66 5.588,3.66 7.2,2.021 7.2,0 7.2,-2.021 5.588,-3.66 3.6,-3.66 1.612,-3.66 0,-2.021 0,0 Z" /></g><g
       transform="translate(83.76,22.74)"
       id="g36"><path
         id="path38"
         style="fill:#f2f2f2;fill-opacity:1;fill-rule:evenodd;stroke:none"
         d="M 0,0 C 0,2.021 1.612,3.66 3.6,3.66 5.588,3.66 7.2,2.021 7.2,0 7.2,-2.021 5.588,-3.66 3.6,-3.66 1.612,-3.66 0,-2.021 0,0 Z" /></g><g
       transform="translate(83.76,22.74)"
       id="g40"><path
         id="path42"
         style="fill:none;stroke:#000000;stroke-width:0.95999998;stroke-linecap:butt;stroke-linejoin:miter;stroke-miterlimit:10;stroke-dasharray:none;stroke-opacity:1"
         d="M 0,0 C 0,2.021 1.612,3.66 3.6,3.66 5.588,3.66 7.2,2.021 7.2,0 7.2,-2.021 5.588,-3.66 3.6,-3.66 1.612,-3.66 0,-2.021 0,0 Z" /></g><g
       transform="translate(71.88,42.66)"
       id="g44"><path
         id="path46"
         style="fill:#a6a6a6;fill-opacity:1;fill-rule:evenodd;stroke:none"
         d="M 0,0 C 0,2.021 1.639,3.66 3.66,3.66 5.681,3.66 7.32,2.021 7.32,0 7.32,-2.021 5.681,-3.66 3.66,-3.66 1.639,-3.66 0,-2.021 0,0 Z" /></g><g
       transform="translate(71.88,42.66)"
       id="g48"><path
         id="path50"
         style="fill:none;stroke:#000000;stroke-width:0.95999998;stroke-linecap:butt;stroke-linejoin:miter;stroke-miterlimit:10;stroke-dasharray:none;stroke-opacity:1"
         d="M 0,0 C 0,2.021 1.639,3.66 3.66,3.66 5.681,3.66 7.32,2.021 7.32,0 7.32,-2.021 5.681,-3.66 3.66,-3.66 1.639,-3.66 0,-2.021 0,0 Z" /></g><g
       transform="translate(71.88,29.82)"
       id="g52"><path
         id="path54"
         style="fill:#f2f2f2;fill-opacity:1;fill-rule:evenodd;stroke:none"
         d="M 0,0 C 0,2.021 1.639,3.66 3.66,3.66 5.681,3.66 7.32,2.021 7.32,0 7.32,-2.021 5.681,-3.66 3.66,-3.66 1.639,-3.66 0,-2.021 0,0 Z" /></g><g
       transform="translate(71.88,29.82)"
       id="g56"><path
         id="path58"
         style="fill:none;stroke:#000000;stroke-width:0.95999998;stroke-linecap:butt;stroke-linejoin:miter;stroke-miterlimit:10;stroke-dasharray:none;stroke-opacity:1"
         d="M 0,0 C 0,2.021 1.639,3.66 3.66,3.66 5.681,3.66 7.32,2.021 7.32,0 7.32,-2.021 5.681,-3.66 3.66,-3.66 1.639,-3.66 0,-2.021 0,0 Z" /></g><g
       transform="translate(95.4,42.66)"
       id="g60"><path
         id="path62"
         style="fill:#bfbfbf;fill-opacity:1;fill-rule:evenodd;stroke:none"
         d="M 0,0 C 0,2.021 1.639,3.66 3.66,3.66 5.68,3.66 7.32,2.021 7.32,0 7.32,-2.021 5.68,-3.66 3.66,-3.66 1.639,-3.66 0,-2.021 0,0 Z" /></g><g
       transform="translate(95.4,42.66)"
       id="g64"><path
         id="path66"
         style="fill:none;stroke:#000000;stroke-width:0.95999998;stroke-linecap:butt;stroke-linejoin:miter;stroke-miterlimit:10;stroke-dasharray:none;stroke-opacity:1"
         d="M 0,0 C 0,2.021 1.639,3.66 3.66,3.66 5.68,3.66 7.32,2.021 7.32,0 7.32,-2.021 5.68,-3.66 3.66,-3.66 1.639,-3.66 0,-2.021 0,0 Z" /></g><g
       transform="translate(95.4,29.82)"
       id="g68"><path
         id="path70"
         style="fill:#d9d9d9;fill-opacity:1;fill-rule:evenodd;stroke:none"
         d="M 0,0 C 0,2.021 1.639,3.66 3.66,3.66 5.68,3.66 7.32,2.021 7.32,0 7.32,-2.021 5.68,-3.66 3.66,-3.66 1.639,-3.66 0,-2.021 0,0 Z" /></g><g
       transform="translate(95.4,29.82)"
       id="g72"><path
         id="path74"
         style="fill:none;stroke:#000000;stroke-width:0.95999998;stroke-linecap:butt;stroke-linejoin:miter;stroke-miterlimit:10;stroke-dasharray:none;stroke-opacity:1"
         d="M 0,0 C 0,2.021 1.639,3.66 3.66,3.66 5.68,3.66 7.32,2.021 7.32,0 7.32,-2.021 5.68,-3.66 3.66,-3.66 1.639,-3.66 0,-2.021 0,0 Z" /></g><g
       transform="translate(84.272,38.414)"
       id="g76"><path
         id="path78"
         style="fill:none;stroke:#000000;stroke-width:0.95999998;stroke-linecap:butt;stroke-linejoin:miter;stroke-miterlimit:10;stroke-dasharray:none;stroke-opacity:1"
         d="M 0,0 -5.552,3.106" /></g><g
       transform="translate(95.792,31.934)"
       id="g80"><path
         id="path82"
         style="fill:none;stroke:#000000;stroke-width:0.95999998;stroke-linecap:butt;stroke-linejoin:miter;stroke-miterlimit:10;stroke-dasharray:none;stroke-opacity:1"
         d="M 0,0 -5.552,3.106" /></g><g
       transform="translate(78.72,31.694)"
       id="g84"><path
         id="path86"
         style="fill:none;stroke:#000000;stroke-width:0.95999998;stroke-linecap:butt;stroke-linejoin:miter;stroke-miterlimit:10;stroke-dasharray:none;stroke-opacity:1"
         d="M 0,0 5.552,3.106" /></g><g
       transform="translate(90.36,38.414)"
       id="g88"><path
         id="path90"
         style="fill:none;stroke:#000000;stroke-width:0.95999998;stroke-linecap:butt;stroke-linejoin:miter;stroke-miterlimit:10;stroke-dasharray:none;stroke-opacity:1"
         d="M 0,0 5.552,3.106" /></g><g
       transform="translate(90.84,23.894)"
       id="g92"><path
         id="path94"
         style="fill:none;stroke:#000000;stroke-width:0.95999998;stroke-linecap:butt;stroke-linejoin:miter;stroke-miterlimit:10;stroke-dasharray:none;stroke-opacity:1"
         d="M 0,0 5.552,3.106" /></g><g
       transform="translate(78.24,45.647)"
       id="g96"><path
         id="path98"
         style="fill:none;stroke:#000000;stroke-width:0.95999998;stroke-linecap:butt;stroke-linejoin:miter;stroke-miterlimit:10;stroke-dasharray:none;stroke-opacity:1"
         d="M 0,0 5.922,3.313" /></g><g
       transform="translate(83.792,24.254)"
       id="g100"><path
         id="path102"
         style="fill:none;stroke:#000000;stroke-width:0.95999998;stroke-linecap:butt;stroke-linejoin:miter;stroke-miterlimit:10;stroke-dasharray:none;stroke-opacity:1"
         d="M 0,0 -5.552,3.106" /></g><g
       transform="translate(96.282,45.407)"
       id="g104"><path
         id="path106"
         style="fill:none;stroke:#000000;stroke-width:0.95999998;stroke-linecap:butt;stroke-linejoin:miter;stroke-miterlimit:10;stroke-dasharray:none;stroke-opacity:1"
         d="M 0,0 -5.922,3.313" /></g><g
       transform="translate(75.48,39)"
       id="g108"><path
         id="path110"
         style="fill:none;stroke:#000000;stroke-width:0.95999998;stroke-linecap:butt;stroke-linejoin:miter;stroke-miterlimit:10;stroke-dasharray:none;stroke-opacity:1"
         d="M 0,0 V -5.582" /></g><g
       transform="translate(99.12,39)"
       id="g112"><path
         id="path114"
         style="fill:none;stroke:#000000;stroke-width:0.95999998;stroke-linecap:butt;stroke-linejoin:miter;stroke-miterlimit:10;stroke-dasharray:none;stroke-opacity:1"
         d="M 0,0 V -5.582" /></g><g
       transform="translate(87.36,33.24)"
       id="g116"><path
         id="path118"
         style="fill:none;stroke:#000000;stroke-width:0.95999998;stroke-linecap:butt;stroke-linejoin:miter;stroke-miterlimit:10;stroke-dasharray:none;stroke-opacity:1"
         d="M 0,0 V -6.845" /></g><g
       transform="translate(108.42,37.8)"
       id="g120"><path
         id="path122"
         style="fill:#000000;fill-opacity:1;fill-rule:nonzero;stroke:none"
         d="m 0,0 h 9.36 c 0.5,0 0.9,-0.403 0.9,-0.9 0,-0.497 -0.4,-0.9 -0.9,-0.9 H 0 c -0.5,0 -0.9,0.403 -0.9,0.9 0,0.497 0.4,0.9 0.9,0.9 z M 5.84,2.363 11.06,-0.9 5.84,-4.163 C 5.42,-4.427 4.86,-4.299 4.6,-3.877 4.34,-3.455 4.46,-2.9 4.89,-2.637 l 4,2.5 v -1.526 l -4,2.5 C 4.46,1.1 4.34,1.656 4.6,2.077 4.86,2.498 5.42,2.627 5.84,2.363 Z" /></g><g
       transform="translate(0.48,69.72)"
       id="g124"><path
         id="path126"
         style="fill:none;stroke:#7f7f7f;stroke-width:0.95999998;stroke-linecap:butt;stroke-linejoin:miter;stroke-miterlimit:10;stroke-dasharray:0.96, 0.96;stroke-dashoffset:0;stroke-opacity:1"
         d="M 0,0 H 298.78" /></g></g></svg>